<?xml version="1.0" encoding="utf-8"?>
<!-- Generator: Adobe Illustrator 21.0.2, SVG Export Plug-In . SVG Version: 6.00 Build 0)  -->
<svg version="1.1" id="Ebene_1" xmlns="http://www.w3.org/2000/svg" xmlns:xlink="http://www.w3.org/1999/xlink" x="0px" y="0px"
	 viewBox="0 0 2834.6 2834.6" style="enable-background:new 0 0 2834.6 2834.6;" xml:space="preserve">
<style type="text/css">
	.st0{fill:none;stroke:#010202;stroke-width:0.25;stroke-miterlimit:10;}
	.st1{fill:#388B96;}
	.st2{fill:#FFFFFF;}
	.st3{fill:#468C98;}
	.st4{fill:#478C97;}
</style>
<circle class="st3" cx="2107.1" cy="1858.2" r="218.3"/>
<path class="st3" d="M1491.2,1092.1c-285.7,82.5-494.6,346-494.6,658.3c0,26.8,1.5,53.2,4.5,79.2l-0.3,0c1.1,9.4,1.6,18.9,1.6,28.6
	c0,136.2-110.4,246.6-246.6,246.6s-246.6-110.4-246.6-246.6c0-112.5,75.3-207.4,178.3-237l-0.1-0.4
	c284.8-83.1,492.8-346.1,492.8-657.7c0-26.9-1.6-53.4-4.6-79.5l0.3,0c-1-9.2-1.6-18.6-1.6-28.1c0-136.2,110.4-246.6,246.6-246.6
	s246.6,110.4,246.6,246.6c0,111.8-74.4,206.2-176.4,236.4L1491.2,1092.1z"/>
</svg>
