<?xml version="1.0" encoding="utf-8"?>
<!-- Generator: Adobe Illustrator 21.0.2, SVG Export Plug-In . SVG Version: 6.00 Build 0)  -->
<svg version="1.1" id="Ebene_1" xmlns="http://www.w3.org/2000/svg" xmlns:xlink="http://www.w3.org/1999/xlink" x="0px" y="0px"
	 viewBox="0 0 2834.6 2834.6" style="enable-background:new 0 0 2834.6 2834.6;" xml:space="preserve">
<style type="text/css">
	.st0{fill:none;stroke:#010202;stroke-width:0.25;stroke-miterlimit:10;}
	.st1{fill:#388B96;}
	.st2{fill:#FFFFFF;}
	.st3{fill:#468C98;}
	.st4{fill:#478C97;}
</style>
<circle class="st0" cx="-2674.9" cy="487.4" r="39"/>
<circle class="st0" cx="-2530" cy="487.4" r="39"/>
<circle class="st1" cx="-2640.1" cy="502.1" r="11.1"/>
<path class="st1" d="M-2671.5,463c-14.6,4.2-25.2,17.7-25.2,33.6c0,1.4,0.1,2.7,0.2,4l0,0c0.1,0.5,0.1,1,0.1,1.5
	c0,6.9-5.6,12.6-12.6,12.6c-6.9,0-12.6-5.6-12.6-12.6c0-5.7,3.8-10.6,9.1-12.1l0,0c14.5-4.2,25.1-17.7,25.1-33.6
	c0-1.4-0.1-2.7-0.2-4.1l0,0c-0.1-0.5-0.1-1-0.1-1.4c0-6.9,5.6-12.6,12.6-12.6c6.9,0,12.6,5.6,12.6,12.6
	C-2662.5,456.7-2666.3,461.5-2671.5,463L-2671.5,463z"/>
<circle class="st1" cx="-2495.2" cy="502.1" r="11.1"/>
<path class="st1" d="M-2526.6,463c-14.6,4.2-25.2,17.7-25.2,33.6c0,1.4,0.1,2.7,0.2,4l0,0c0.1,0.5,0.1,1,0.1,1.5
	c0,6.9-5.6,12.6-12.6,12.6s-12.6-5.6-12.6-12.6c0-5.7,3.8-10.6,9.1-12.1l0,0c14.5-4.2,25.1-17.7,25.1-33.6c0-1.4-0.1-2.7-0.2-4.1
	l0,0c-0.1-0.5-0.1-1-0.1-1.4c0-6.9,5.6-12.6,12.6-12.6s12.6,5.6,12.6,12.6C-2517.6,456.7-2521.4,461.5-2526.6,463L-2526.6,463z"/>
<circle class="st2" cx="-2563.8" cy="502.1" r="11.1"/>
<circle class="st2" cx="-2530" cy="451.1" r="11.1"/>
<circle class="st3" cx="-1209.2" cy="630.7" r="11.1"/>
<circle class="st4" cx="-1277.9" cy="630.7" r="11.1"/>
<circle class="st4" cx="-1244.1" cy="579.7" r="12.5"/>
<circle class="st3" cx="-1649.8" cy="630.1" r="11.1"/>
<path class="st3" d="M-1681.3,591c-14.6,4.2-25.2,17.7-25.2,33.6c0,1.4,0.1,2.7,0.2,4l0,0c0.1,0.5,0.1,1,0.1,1.5
	c0,6.9-5.6,12.6-12.6,12.6c-6.9,0-12.6-5.6-12.6-12.6c0-5.7,3.8-10.6,9.1-12.1l0,0c14.5-4.2,25.1-17.7,25.1-33.6
	c0-1.4-0.1-2.7-0.2-4.1l0,0c-0.1-0.5-0.1-1-0.1-1.4c0-6.9,5.6-12.6,12.6-12.6c6.9,0,12.6,5.6,12.6,12.6
	C-1672.3,584.6-1676.1,589.5-1681.3,591L-1681.3,591z"/>
<circle class="st3" cx="2107.1" cy="1858.2" r="218.3"/>
<path class="st3" d="M1491.2,1092.1c-285.7,82.5-494.6,346-494.6,658.3c0,26.8,1.5,53.2,4.5,79.2l-0.3,0c1.1,9.4,1.6,18.9,1.6,28.6
	c0,136.2-110.4,246.6-246.6,246.6s-246.6-110.4-246.6-246.6c0-112.5,75.3-207.4,178.3-237l-0.1-0.4
	c284.8-83.1,492.8-346.1,492.8-657.7c0-26.9-1.6-53.4-4.6-79.5l0.3,0c-1-9.2-1.6-18.6-1.6-28.1c0-136.2,110.4-246.6,246.6-246.6
	s246.6,110.4,246.6,246.6c0,111.8-74.4,206.2-176.4,236.4L1491.2,1092.1z"/>
<circle class="st0" cx="-2384.4" cy="487.4" r="39"/>
<circle class="st1" cx="-2420" cy="502.1" r="11.1"/>
<path class="st1" d="M-2388.5,463c14.6,4.2,25.2,17.7,25.2,33.6c0,1.4-0.1,2.7-0.2,4l0,0c-0.1,0.5-0.1,1-0.1,1.5
	c0,6.9,5.6,12.6,12.6,12.6c6.9,0,12.6-5.6,12.6-12.6c0-5.7-3.8-10.6-9.1-12.1l0,0c-14.5-4.2-25.1-17.7-25.1-33.6
	c0-1.4,0.1-2.7,0.2-4.1l0,0c0.1-0.5,0.1-1,0.1-1.4c0-6.9-5.6-12.6-12.6-12.6c-6.9,0-12.6,5.6-12.6,12.6
	C-2397.5,456.7-2393.7,461.5-2388.5,463L-2388.5,463z"/>
<circle class="st2" cx="-2351.3" cy="502.1" r="11.1"/>
<circle class="st2" cx="-2385.1" cy="451.1" r="11.1"/>
<circle class="st0" cx="-2238.1" cy="487.4" r="39"/>
<path class="st1" d="M-2265.1,511.9c11.7-9.7,35.8-11.3,49-2.4c1.1,0.8,2.2,1.6,3.2,2.5l0,0c0.4,0.3,0.8,0.6,1.2,0.9
	c5.8,3.9,13.6,2.4,17.5-3.4s2.4-13.6-3.4-17.5c-4.8-3.2-10.9-2.7-15.1,0.8l0,0c-11.7,9.7-35.7,11.2-48.9,2.3
	c-1.1-0.8-2.2-1.6-3.2-2.5l0,0c-0.4-0.3-0.7-0.6-1.1-0.9c-5.8-3.9-13.6-2.4-17.5,3.4c-3.9,5.8-2.4,13.6,3.4,17.5
	C-2275.4,515.7-2269.3,515.3-2265.1,511.9L-2265.1,511.9z"/>
<circle class="st2" cx="-2205" cy="502.1" r="11.1"/>
<circle class="st1" cx="-2238.8" cy="451.1" r="11.1"/>
<circle class="st2" cx="-2273.6" cy="502.1" r="11.1"/>
<circle class="st0" cx="-2530" cy="610.3" r="39"/>
<circle class="st1" cx="-2495.2" cy="625.1" r="11.1"/>
<path class="st1" d="M-2526.6,586c-14.6,4.2-26.4,17.7-26.4,33.6c0,1.4,0.1,2.7,0.2,4l0,0c0.1,0.5,0.1,1,0.1,1.5
	c0,6.9-5.6,11.1-11.4,11.1c-5.8,0-10.9-5.3-10.9-11.1c0-5.7,3.7-9.6,9-11.1l0,0c14.5-4.2,23.6-18.6,23.6-34.5c0-1.4-0.1-2.7-0.2-4.1
	l0,0c-0.1-0.5-0.1-1-0.1-1.4c0-6.9,5.6-12.6,12.6-12.6s12.6,5.6,12.6,12.6C-2517.6,579.6-2521.4,584.4-2526.6,586L-2526.6,586z"/>
<circle class="st2" cx="-2563.8" cy="625.1" r="11.1"/>
<circle class="st2" cx="-2530" cy="574.1" r="11.1"/>
<circle class="st0" cx="-2384.9" cy="610.3" r="39"/>
<circle class="st1" cx="-2350.1" cy="625.1" r="11.1"/>
<path class="st1" d="M-2407.2,613c-0.6,3.5-0.7,4-0.7,6.6c0,1.4,0.1,2.7,0.2,4l0,0c0.1,0.5,0.1,1,0.1,1.5c0,6.9-5.6,11.1-11.4,11.1
	c-5.8,0-10.9-5.3-10.9-11.1c0-5.7,3.7-9.6,9-11.1l0,0c3.6-1.1,3.7-1.1,8.3-3.9C-2408,607.3-2406.6,609.5-2407.2,613z"/>
<path class="st1" d="M-2405.9,603.4c1.9-4.2,7.6-15.7,8.2-29.5c0.3-6.9,5.6-12.6,12.6-12.6s12.6,5.6,12.6,12.6
	c0,5.7-4,10.4-8.6,12.6c-7.9,3.7-19,13.9-23,18.3C-2406.6,607.7-2407.4,606.8-2405.9,603.4z"/>
<circle class="st2" cx="-2418.7" cy="625.1" r="11.1"/>
<circle class="st2" cx="-2384.9" cy="574.1" r="11.1"/>
<circle class="st0" cx="-2238.6" cy="610.3" r="39"/>
<circle class="st1" cx="-2203.8" cy="625.1" r="11.1"/>
<path class="st1" d="M-2260.9,619c-0.2,1.8-0.4,2.5-0.4,4.6c0,0.5,0,1,0,1.5c0,6.9-5.6,11.1-11.4,11.1c-5.8,0-10.9-5.3-10.9-11.1
	c0-5.7,3.7-9.6,9-11.1c0,0,2.3-1.2,5.8-1.6C-2264.3,611.9-2260.5,615.5-2260.9,619z"/>
<path class="st1" d="M-2254.5,590.7c0.9-5.5,2.7-10.6,3.1-16.8c0.5-6.9,5.6-12.6,12.6-12.6s12.6,5.6,12.6,12.6
	c0,5.7-4.1,10.3-8.6,12.6c-6.8,3.5-8.2,5.1-13.5,9.3C-2251.2,598.2-2255.1,594.3-2254.5,590.7z"/>
<circle class="st2" cx="-2272.4" cy="625.1" r="11.1"/>
<circle class="st2" cx="-2238.6" cy="574.1" r="11.1"/>
<circle class="st3" cx="-1503.5" cy="630.8" r="11.1"/>
<path class="st3" d="M-1560.7,618.7c-0.6,3.5-0.7,4-0.7,6.6c0,1.4,0.1,2.7,0.2,4l0,0c0.1,0.5,0.1,1,0.1,1.5
	c0,6.9-5.6,11.1-11.4,11.1c-5.8,0-10.9-5.3-10.9-11.1c0-5.7,3.7-9.6,9-11.1l0,0c3.6-1.1,3.7-1.1,8.3-3.9
	C-1561.5,613-1560.1,615.3-1560.7,618.7z"/>
<path class="st3" d="M-1559.4,609.2c1.9-4.2,7.6-15.7,8.2-29.5c0.3-6.9,5.6-12.6,12.6-12.6s12.6,5.6,12.6,12.6
	c0,5.7-4,10.4-8.6,12.6c-7.9,3.7-19,13.9-23,18.3C-1560,613.4-1560.9,612.5-1559.4,609.2z"/>
<circle class="st3" cx="-1357.2" cy="630.8" r="11.1"/>
<path class="st3" d="M-1414.3,624.7c-0.2,1.8-0.4,2.5-0.4,4.6c0,0.5,0,1,0,1.5c0,6.9-5.6,11.1-11.4,11.1c-5.8,0-10.9-5.3-10.9-11.1
	c0-5.7,3.7-9.6,9-11.1c0,0,2.3-1.2,5.8-1.6C-1417.7,617.6-1414,621.2-1414.3,624.7z"/>
<path class="st3" d="M-1407.9,596.4c0.9-5.5,2.3-10.7,3.1-16.8c1-6.9,5.6-12.6,12.6-12.6s12.6,5.6,12.6,12.6
	c0,5.7-4.1,10.3-8.6,12.6c-6.8,3.5-8.2,5.1-13.5,9.3C-1404.7,604-1408.5,600.1-1407.9,596.4z"/>
<circle class="st0" cx="-2530" cy="721.6" r="39"/>
<circle class="st1" cx="-2495.2" cy="736.4" r="11.1"/>
<path class="st1" d="M-2526.6,697.3c-14.6,4.2-25.2,17.7-25.2,33.6c0,1.4,0.1,2.7,0.2,4l0,0c0.1,0.5,0.1,1,0.1,1.5
	c0,6.9-5.6,12.6-12.6,12.6s-12.6-5.6-12.6-12.6c0-5.7,3.8-10.6,9.1-12.1l0,0c14.5-4.2,25.1-17.7,25.1-33.6c0-1.4-0.1-2.7-0.2-4.1
	l0,0c-0.1-0.5-0.1-1-0.1-1.4c0-6.9,5.6-12.6,12.6-12.6s12.6,5.6,12.6,12.6C-2517.6,690.9-2521.4,695.7-2526.6,697.3L-2526.6,697.3z"
	/>
<circle class="st2" cx="-2563.8" cy="736.4" r="11.1"/>
<circle class="st2" cx="-2530" cy="685.4" r="11.1"/>
<circle class="st0" cx="-2384.4" cy="721.6" r="39"/>
<circle class="st1" cx="-2420" cy="736.4" r="11.1"/>
<path class="st1" d="M-2388.5,697.3c14.6,4.2,25.2,17.7,25.2,33.6c0,1.4-0.1,2.7-0.2,4l0,0c-0.1,0.5-0.1,1-0.1,1.5
	c0,6.9,5.6,12.6,12.6,12.6c6.9,0,12.6-5.6,12.6-12.6c0-5.7-3.8-10.6-9.1-12.1l0,0c-14.5-4.2-25.1-17.7-25.1-33.6
	c0-1.4,0.1-2.7,0.2-4.1l0,0c0.1-0.5,0.1-1,0.1-1.4c0-6.9-5.6-12.6-12.6-12.6c-6.9,0-12.6,5.6-12.6,12.6
	C-2397.5,690.9-2393.7,695.7-2388.5,697.3L-2388.5,697.3z"/>
<circle class="st2" cx="-2351.3" cy="736.4" r="11.1"/>
<circle class="st2" cx="-2385.1" cy="685.4" r="11.1"/>
<circle class="st0" cx="-2238.1" cy="721.6" r="39"/>
<path class="st1" d="M-2265.1,746.1c11.7-9.7,35.8-11.3,49-2.4c1.1,0.8,2.2,1.6,3.2,2.5l0,0c0.4,0.3,0.8,0.6,1.2,0.9
	c5.8,3.9,13.6,2.4,17.5-3.4s2.4-13.6-3.4-17.5c-4.8-3.2-10.9-2.7-15.1,0.8l0,0c-11.7,9.7-35.7,11.2-48.9,2.3
	c-1.1-0.8-2.2-1.6-3.2-2.5l0,0c-0.4-0.3-0.7-0.6-1.1-0.9c-5.8-3.9-13.6-2.4-17.5,3.4c-3.9,5.8-2.4,13.6,3.4,17.5
	C-2275.4,750-2269.3,749.6-2265.1,746.1L-2265.1,746.1z"/>
<circle class="st2" cx="-2205" cy="736.4" r="11.1"/>
<circle class="st1" cx="-2238.8" cy="685.4" r="11.1"/>
<circle class="st2" cx="-2273.6" cy="736.4" r="11.1"/>
</svg>
